<svg version="1.1" id="Layer_1" xmlns="http://www.w3.org/2000/svg" xmlns:xlink="http://www.w3.org/1999/xlink" x="0px" y="0px"
	 width="100%" viewBox="0 0 50 50" enable-background="new 0 0 50 50" xml:space="preserve">
<path fill="#AAABAB" opacity="1.000000" stroke="none" 
	d="
M1.000000,22.000000 
	C1.000000,15.079894 1.000000,8.159787 1.000000,1.000000 
	C6.684634,1.000000 12.372608,1.000000 18.532284,1.399146 
	C19.334309,4.376832 19.664631,6.955372 19.705322,9.718376 
	C18.981735,10.599566 18.547777,11.296290 18.076674,12.399256 
	C18.029518,13.077271 18.019508,13.349043 17.799961,13.745111 
	C17.379023,14.129287 17.167624,14.389167 16.814419,14.201574 
	C16.050602,14.387013 15.428594,15.019924 14.774526,16.133526 
	C14.833858,16.922112 14.925252,17.230007 15.016832,17.524601 
	C15.017017,17.511301 15.035059,17.491756 14.821367,17.618053 
	C14.780166,18.119482 14.952657,18.494616 14.984024,19.202599 
	C14.486071,20.147585 14.129241,20.759722 13.468038,21.317308 
	C12.478349,20.865814 11.793034,20.468870 10.732740,20.060722 
	C8.907288,20.366693 7.456814,20.683867 5.643067,21.050117 
	C3.853197,21.399467 2.426599,21.699734 1.000000,22.000000 
M14.608589,14.000057 
	C14.676880,13.823307 14.745171,13.646557 14.813461,13.469807 
	C14.630148,13.521452 14.446834,13.573097 14.608589,14.000057 
z"/>
<path fill="#646675" opacity="1.000000" stroke="none" 
	d="
M51.000000,30.000000 
	C51.000000,36.922245 51.000000,43.844494 51.000000,51.000000 
	C44.981579,51.000000 38.960163,51.000000 32.429157,50.646919 
	C31.944933,47.555668 31.970304,44.817493 32.308483,41.914631 
	C35.133148,40.337967 37.645004,38.925995 40.390446,37.550400 
	C41.187481,37.183624 41.750931,36.780472 42.644650,36.218857 
	C43.984344,35.040840 44.993767,34.021282 46.294968,32.969063 
	C47.057728,32.621849 47.528717,32.307285 48.226204,31.809559 
	C48.632832,31.083693 48.812962,30.540997 49.327576,29.998783 
	C50.108044,29.999508 50.554020,29.999754 51.000000,30.000000 
z"/>
<path fill="#9499A3" opacity="1.000000" stroke="none" 
	d="
M38.000000,1.000000 
	C40.042316,1.000000 42.084637,1.000000 44.512646,1.366754 
	C43.596699,6.816880 42.295055,11.900251 40.974697,17.275507 
	C40.939613,17.761524 40.923248,17.955658 40.613472,18.106426 
	C39.602291,17.750877 38.884518,17.438696 38.102684,16.736389 
	C37.970005,15.563837 37.901394,14.781410 37.893059,13.656275 
	C37.651165,12.515308 37.348995,11.717051 37.024582,10.720783 
	C37.002342,10.522774 36.956356,10.126927 37.098259,9.796976 
	C37.489189,8.312731 37.738213,7.158436 37.991158,5.587033 
	C37.996719,3.779950 37.998360,2.389975 38.000000,1.000000 
z"/>
<path fill="#A3A5AA" opacity="1.000000" stroke="none" 
	d="
M26.000000,1.000000 
	C27.066786,1.000000 28.133574,1.000000 29.646038,1.348340 
	C31.730415,4.295235 33.369114,6.893791 34.642258,9.536996 
	C33.443882,10.029434 32.611061,10.477222 31.497789,10.969540 
	C30.500227,11.224319 29.783112,11.434570 29.010973,11.353140 
	C28.170866,10.432471 27.385784,9.803485 26.398436,8.945272 
	C26.116112,8.528625 26.036057,8.341202 25.967590,7.705990 
	C25.986122,5.172135 25.993061,3.086067 26.000000,1.000000 
z"/>
<path fill="#9E9FA5" opacity="1.000000" stroke="none" 
	d="
M1.000000,33.000000 
	C1.000000,32.250000 1.000000,31.500000 1.343421,30.327520 
	C4.131519,28.266413 6.576196,26.627785 9.357704,25.037508 
	C10.496567,26.037458 11.298601,26.989058 11.835262,28.159359 
	C11.376314,29.252975 11.182739,30.127892 10.698697,31.033165 
	C9.937106,31.373466 9.465981,31.683413 8.743683,31.896057 
	C7.661559,32.198967 6.830608,32.599178 5.624801,32.999931 
	C4.500232,33.000622 3.750520,33.000774 2.667157,33.000542 
	C1.889004,33.000103 1.444502,33.000050 1.000000,33.000000 
z"/>
<path fill="#8F95A0" opacity="1.000000" stroke="none" 
	d="
M40.993416,16.983624 
	C42.295055,11.900251 43.596699,6.816880 44.949169,1.366754 
	C45.750000,1.000000 46.500000,1.000000 47.570675,1.361448 
	C46.927681,5.815278 45.964008,9.907660 45.000122,14.336278 
	C44.997852,15.121742 44.995792,15.570971 44.712223,16.062065 
	C43.976665,16.409622 43.522617,16.715313 42.722778,17.014290 
	C41.915794,16.999592 41.454605,16.991608 40.993416,16.983624 
z"/>
<path fill="#A2A2A8" opacity="1.000000" stroke="none" 
	d="
M9.020874,24.989159 
	C6.576196,26.627785 4.131519,28.266413 1.343421,29.952520 
	C1.000000,27.629442 1.000000,25.258884 1.000000,22.444164 
	C2.426599,21.699734 3.853197,21.399467 5.771665,21.342041 
	C7.182647,22.719643 8.101761,23.854401 9.020874,24.989159 
z"/>
<path fill="#92939A" opacity="1.000000" stroke="none" 
	d="
M1.000000,49.000000 
	C1.000000,46.957684 1.000000,44.915363 1.311083,42.380344 
	C2.081975,41.258865 2.541786,40.630085 3.292982,39.870628 
	C4.389561,39.493149 5.194753,39.246346 5.999982,39.249855 
	C6.000120,39.667027 6.000222,39.833897 6.000308,40.384953 
	C6.333623,42.179436 6.666954,43.589725 7.000700,45.250282 
	C7.001619,45.667385 7.002124,45.834225 6.794877,46.123417 
	C6.327821,46.448174 6.132645,46.700245 5.793671,47.123569 
	C5.326437,47.447021 5.131039,47.698532 4.656753,48.042442 
	C3.209304,48.390125 2.104652,48.695065 1.000000,49.000000 
z"/>
<path fill="#97999F" opacity="1.000000" stroke="none" 
	d="
M5.999946,38.999542 
	C5.194753,39.246346 4.389561,39.493149 2.959363,39.870190 
	C1.889571,40.000282 1.444785,40.000141 1.000000,40.000000 
	C1.000000,39.250000 1.000000,38.500000 1.310983,37.318501 
	C2.081412,36.258102 2.540859,35.629204 3.000269,34.666885 
	C3.000425,33.889282 3.000616,33.445107 3.000807,33.000927 
	C3.750520,33.000774 4.500232,33.000622 5.999713,33.000122 
	C7.499247,32.998627 8.249013,32.997482 9.248846,32.997040 
	C9.665622,32.998264 9.832333,32.998791 9.966311,33.263287 
	C8.955374,35.017914 7.977170,36.508575 6.791566,38.121567 
	C6.325324,38.446217 6.130584,38.698097 5.999946,38.999542 
z"/>
<path fill="#8D939F" opacity="1.000000" stroke="none" 
	d="
M45.000343,14.000042 
	C45.964008,9.907660 46.927681,5.815278 47.945675,1.361448 
	C50.558823,0.441177 51.558823,1.441178 50.649651,4.552916 
	C49.199589,7.070575 48.099873,9.035320 46.759178,11.224827 
	C46.345512,12.299809 46.172825,13.150028 45.750183,14.000191 
	C45.500233,14.000133 45.000343,14.000043 45.000343,14.000042 
z"/>
<path fill="#A0A2AA" opacity="1.000000" stroke="none" 
	d="
M35.007809,9.492347 
	C33.369114,6.893791 31.730415,4.295235 30.045860,1.348340 
	C30.750000,1.000000 31.500000,1.000000 32.634567,1.371142 
	C34.675163,3.162904 36.331200,4.583524 37.987236,6.004143 
	C37.738213,7.158436 37.489189,8.312731 36.753407,9.740124 
	C35.847034,9.839597 35.427422,9.665972 35.007809,9.492347 
z"/>
<path fill="#A9AAAC" opacity="1.000000" stroke="none" 
	d="
M19.994953,9.533912 
	C19.664631,6.955372 19.334309,4.376832 19.001993,1.399146 
	C20.066669,1.000000 21.133339,1.000000 22.599953,1.473253 
	C23.174175,4.819611 23.348455,7.692716 23.505630,10.713572 
	C23.488522,10.861322 23.211704,10.987879 23.000816,10.649158 
	C22.283199,10.200068 21.776472,10.089699 20.961548,9.837914 
	C20.433887,9.642303 20.214420,9.588108 19.994953,9.533912 
z"/>
<path fill="#666877" opacity="1.000000" stroke="none" 
	d="
M31.995678,42.079323 
	C31.970304,44.817493 31.944933,47.555668 31.959782,50.646919 
	C31.555555,51.000000 31.111111,51.000000 30.322960,50.653984 
	C29.326614,49.532101 28.673977,48.756229 27.902473,47.721436 
	C27.497437,46.764454 27.211267,46.066399 27.221928,45.187817 
	C29.011066,44.031303 30.503372,43.055313 31.995678,42.079323 
z"/>
<path fill="#878D9A" opacity="1.000000" stroke="none" 
	d="
M46.000137,14.000249 
	C46.172825,13.150028 46.345512,12.299809 47.081402,11.163539 
	C48.763069,10.251660 49.881535,9.625830 51.000000,9.000000 
	C51.000000,10.388889 51.000000,11.777778 50.670795,13.625443 
	C48.894428,15.056174 47.447266,16.028130 46.000050,16.625084 
	C46.000042,15.500139 46.000088,14.750194 46.000137,14.000249 
z"/>
<path fill="#A7A8AB" opacity="1.000000" stroke="none" 
	d="
M23.522736,10.565822 
	C23.348455,7.692716 23.174175,4.819611 22.999947,1.473253 
	C23.750000,1.000000 24.500000,1.000000 25.625000,1.000000 
	C25.993061,3.086067 25.986122,5.172135 25.677086,7.756314 
	C24.757570,9.024892 24.140152,9.795357 23.522736,10.565822 
z"/>
<path fill="#9DA0A8" opacity="1.000000" stroke="none" 
	d="
M37.991158,5.587034 
	C36.331200,4.583524 34.675163,3.162904 33.009567,1.371142 
	C34.388889,1.000000 35.777779,1.000000 37.583336,1.000000 
	C37.998360,2.389975 37.996719,3.779950 37.991158,5.587034 
z"/>
<path fill="#787A87" opacity="1.000000" stroke="none" 
	d="
M26.925098,45.368340 
	C27.211267,46.066399 27.497437,46.764454 27.762209,47.992298 
	C27.160540,49.348057 26.580269,50.174026 26.000000,51.000000 
	C26.000000,51.000000 25.500000,51.000000 25.240032,50.653118 
	C24.320976,49.537136 23.661890,48.768032 23.002024,47.749161 
	C23.001242,47.499390 22.999771,46.999847 23.027693,46.718773 
	C23.339355,45.972492 23.623096,45.507290 24.286449,45.070053 
	C25.419073,45.188126 26.172087,45.278233 26.925098,45.368340 
z"/>
<path fill="#8B8B94" opacity="1.000000" stroke="none" 
	d="
M12.000000,51.000000 
	C10.933213,51.000000 9.866426,51.000000 8.549765,50.663597 
	C8.533438,48.885098 8.766986,47.443008 9.317531,45.966225 
	C10.423058,45.621075 11.211586,45.310616 12.000117,45.375183 
	C12.000257,46.500294 12.000396,47.250378 12.000366,48.375401 
	C12.000132,49.500229 12.000066,50.250114 12.000000,51.000000 
z"/>
<path fill="#898F9C" opacity="1.000000" stroke="none" 
	d="
M51.000000,8.600004 
	C49.881535,9.625830 48.763069,10.251660 47.322380,10.938778 
	C48.099873,9.035320 49.199589,7.070575 50.649651,5.052915 
	C51.000000,6.066669 51.000000,7.133339 51.000000,8.600004 
z"/>
<path fill="#7F818C" opacity="1.000000" stroke="none" 
	d="
M22.999771,46.999847 
	C22.999771,46.999847 23.001242,47.499390 23.000916,48.124310 
	C23.000393,49.499485 23.000196,50.249744 23.000000,51.000000 
	C21.933214,51.000000 20.866426,51.000000 19.399828,50.625015 
	C19.000055,49.500065 19.000095,48.750103 19.000187,47.750202 
	C19.000235,47.500267 19.000515,47.000412 19.400440,47.000488 
	C20.866835,47.000328 21.933302,47.000088 22.999771,46.999847 
z"/>
<path fill="#878891" opacity="1.000000" stroke="none" 
	d="
M12.400223,51.000000 
	C12.000066,50.250114 12.000132,49.500229 12.339844,48.367176 
	C13.786353,47.322468 14.893214,46.660931 16.250114,45.999550 
	C16.666845,45.999863 16.833536,46.000008 17.000160,46.333637 
	C17.000107,47.111450 17.000122,47.555775 16.759113,48.224838 
	C16.345394,49.299717 16.172697,50.149860 16.000000,51.000000 
	C14.933482,51.000000 13.866963,51.000000 12.400223,51.000000 
z"/>
<path fill="#848B97" opacity="1.000000" stroke="none" 
	d="
M46.000103,17.000084 
	C47.447266,16.028130 48.894428,15.056174 50.670795,14.042110 
	C51.000000,14.750000 51.000000,15.500000 50.675102,16.665016 
	C49.224354,17.724878 48.098507,18.369724 46.680573,18.978153 
	C45.918678,18.620609 45.448872,18.299484 45.188736,17.864681 
	C45.658958,17.556482 45.856098,17.311031 45.994274,17.008251 
	C45.998722,17.001856 46.000103,17.000086 46.000103,17.000084 
z"/>
<path fill="#696C7C" opacity="1.000000" stroke="none" 
	d="
M51.000000,29.600180 
	C50.554020,29.999754 50.108044,29.999508 49.073231,29.884737 
	C47.989475,29.513702 47.494556,29.257195 46.749702,29.000465 
	C46.499771,29.000242 45.999908,29.000107 46.136448,28.731010 
	C46.848934,27.641405 47.424881,26.820892 48.375725,26.000256 
	C49.500412,26.000086 50.250206,26.000042 51.000000,26.000000 
	C51.000000,27.066786 51.000000,28.133574 51.000000,29.600180 
z"/>
<path fill="#828995" opacity="1.000000" stroke="none" 
	d="
M46.972660,19.014572 
	C48.098507,18.369724 49.224354,17.724878 50.675102,17.040016 
	C51.000000,18.388889 51.000000,19.777779 50.667854,21.582188 
	C49.893078,21.983759 49.450451,21.969810 48.876774,21.701584 
	C48.163277,20.972021 47.580830,20.496740 46.992611,19.769722 
	C46.982117,19.350180 46.977390,19.182375 46.972660,19.014572 
z"/>
<path fill="#8C8C95" opacity="1.000000" stroke="none" 
	d="
M9.000534,46.000916 
	C8.766986,47.443008 8.533438,48.885098 8.149944,50.663597 
	C7.555555,51.000000 7.111111,51.000000 6.456105,50.719147 
	C6.164229,49.292854 6.082914,48.147415 6.001600,47.001972 
	C6.132645,46.700245 6.327821,46.448174 7.127821,46.123222 
	C8.112523,46.000759 8.556528,46.000835 9.000534,46.000916 
z"/>
<path fill="#6A6D7D" opacity="1.000000" stroke="none" 
	d="
M49.007824,21.955862 
	C49.450451,21.969810 49.893078,21.983759 50.667854,21.998854 
	C51.000000,23.066519 51.000000,24.133036 51.000000,25.599777 
	C50.250206,26.000042 49.500412,26.000086 48.375477,25.666901 
	C48.000324,24.889215 48.000317,24.444754 48.229485,23.811361 
	C48.641712,23.066906 48.824768,22.511385 49.007824,21.955862 
z"/>
<path fill="#909098" opacity="1.000000" stroke="none" 
	d="
M1.000000,49.500000 
	C2.104652,48.695065 3.209304,48.390125 4.656890,48.417488 
	C4.999883,49.499855 4.999941,50.249928 5.000000,51.000000 
	C3.666667,50.666668 2.333333,50.333332 1.000000,49.500000 
z"/>
<path fill="#727583" opacity="1.000000" stroke="none" 
	d="
M26.399994,51.000000 
	C26.580269,50.174026 27.160540,49.348057 27.881077,48.251221 
	C28.673977,48.756229 29.326614,49.532101 29.989626,50.653984 
	C28.933331,51.000000 27.866661,51.000000 26.399994,51.000000 
z"/>
<path fill="#81838E" opacity="1.000000" stroke="none" 
	d="
M16.375000,51.000000 
	C16.172697,50.149860 16.345394,49.299717 17.092598,48.224823 
	C18.111448,48.000095 18.555794,48.000118 19.000137,48.000137 
	C19.000095,48.750103 19.000055,49.500065 19.000008,50.625015 
	C18.250000,51.000000 17.500000,51.000000 16.375000,51.000000 
z"/>
<path fill="#7B7C88" opacity="1.000000" stroke="none" 
	d="
M23.333332,51.000000 
	C23.000196,50.249744 23.000393,49.499485 23.001698,48.374081 
	C23.661890,48.768032 24.320976,49.537136 24.990032,50.653118 
	C24.555555,51.000000 24.111111,51.000000 23.333332,51.000000 
z"/>
<path fill="#8D8E96" opacity="1.000000" stroke="none" 
	d="
M5.250000,51.000000 
	C4.999941,50.249928 4.999883,49.499855 4.999687,48.374741 
	C5.131039,47.698532 5.326437,47.447021 5.793671,47.123569 
	C6.082914,48.147415 6.164229,49.292854 6.122772,50.719147 
	C6.000000,51.000000 5.500000,51.000000 5.250000,51.000000 
z"/>
<path fill="#9B9CA2" opacity="1.000000" stroke="none" 
	d="
M2.667156,33.000542 
	C3.000616,33.445107 3.000425,33.889282 2.666882,34.666786 
	C1.889020,35.000072 1.444510,35.000034 1.000000,35.000000 
	C1.000000,34.555664 1.000000,34.111328 1.000000,33.333496 
	C1.444502,33.000050 1.889004,33.000103 2.667156,33.000542 
z"/>
<path fill="#999BA1" opacity="1.000000" stroke="none" 
	d="
M1.000000,35.333332 
	C1.444510,35.000034 1.889020,35.000072 2.666918,35.000206 
	C2.540859,35.629204 2.081412,36.258102 1.310983,36.943501 
	C1.000000,36.555553 1.000000,36.111111 1.000000,35.333332 
z"/>
<path fill="#96979D" opacity="1.000000" stroke="none" 
	d="
M1.000000,40.333332 
	C1.444785,40.000141 1.889571,40.000282 2.667976,40.000870 
	C2.541786,40.630085 2.081975,41.258865 1.311083,41.943821 
	C1.000000,41.555553 1.000000,41.111111 1.000000,40.333332 
z"/>
<path fill="#B4B5C1" opacity="1.000000" stroke="none" 
	d="
M9.357704,25.037508 
	C8.101761,23.854401 7.182647,22.719643 6.134936,21.292961 
	C7.456814,20.683867 8.907288,20.366693 10.745312,20.391113 
	C12.034808,21.081198 12.936754,21.429686 14.323511,21.917377 
	C15.420012,22.316282 16.031704,22.575985 16.743362,22.942196 
	C17.381979,23.374531 17.920631,23.700354 18.832762,24.000832 
	C19.453957,24.006153 19.701675,24.036819 20.012924,24.316952 
	C20.369898,24.707058 20.663343,24.847692 21.022324,25.339745 
	C22.070333,26.116497 23.052809,26.541830 24.073757,27.215897 
	C24.409008,27.602484 24.705788,27.740339 25.225824,28.012989 
	C25.633673,28.435192 25.818262,28.722603 26.006367,29.321371 
	C26.210850,30.399639 26.411821,31.166550 26.514927,32.192474 
	C25.921057,32.604965 25.425049,32.758438 24.686569,32.671619 
	C23.295572,32.270283 22.147047,32.109238 20.911583,31.768047 
	C20.679811,31.355904 20.490290,31.169270 20.089939,30.730055 
	C18.966747,29.914852 18.009699,29.397596 16.925625,28.601299 
	C15.864121,28.371359 14.929643,28.420458 13.778671,28.342339 
	C13.074999,28.123634 12.587816,28.032146 12.100635,27.940659 
	C11.298601,26.989058 10.496567,26.037458 9.357704,25.037508 
z"/>
<path fill="#707AE7" opacity="1.000000" stroke="none" 
	d="
M18.009501,13.620815 
	C18.019508,13.349043 18.029518,13.077271 18.386982,12.361660 
	C19.540915,11.702068 20.347389,11.486315 21.371235,11.429489 
	C21.425632,11.855759 21.262659,12.123100 20.837967,12.811969 
	C20.520153,13.559484 20.464058,13.885471 20.355793,14.402165 
	C20.303625,14.592871 20.432795,14.966603 20.352991,15.122763 
	C20.243069,15.536612 20.107342,15.712929 19.655533,15.832095 
	C19.445055,15.856315 19.041700,15.986138 18.761259,15.940453 
	C18.320501,15.793871 18.160185,15.692974 17.997690,15.336338 
	C18.000177,14.594003 18.004839,14.107409 18.009501,13.620815 
z"/>
<path fill="#A1606D" opacity="1.000000" stroke="none" 
	d="
M16.643394,22.835686 
	C16.031704,22.575985 15.420012,22.316282 14.318359,21.815260 
	C13.828398,21.573938 13.772411,21.371857 13.772411,21.371857 
	C14.129241,20.759722 14.486071,20.147585 15.092521,18.849823 
	C15.239779,17.940046 15.137420,17.715900 15.035059,17.491756 
	C15.035059,17.491756 15.017017,17.511301 15.267220,17.807192 
	C16.236069,18.105536 16.954714,18.107990 17.701160,18.271706 
	C17.818886,18.633860 17.944792,18.808847 18.151421,19.243053 
	C18.261255,19.709234 18.326351,19.890295 18.294579,20.093338 
	C18.197710,20.115324 18.053801,19.978371 17.782259,20.037350 
	C17.402473,20.430466 17.294231,20.764603 17.048668,21.369713 
	C16.757515,21.772411 16.603680,21.904131 16.524466,22.229460 
	C16.599087,22.423071 16.643394,22.835686 16.643394,22.835686 
z"/>
<path fill="#717AEF" opacity="1.000000" stroke="none" 
	d="
M21.153866,11.270561 
	C20.347389,11.486315 19.540915,11.702068 18.424129,11.955419 
	C18.547777,11.296290 18.981735,10.599566 19.705322,9.718376 
	C20.214420,9.588108 20.433887,9.642303 20.775787,10.106606 
	C20.949492,10.727643 21.000761,10.938574 21.084461,11.173904 
	C21.116892,11.198302 21.153866,11.270560 21.153866,11.270561 
z"/>
<path fill="#FEF5E6" opacity="1.000000" stroke="none" 
	d="
M13.468038,21.317308 
	C13.772411,21.371857 13.828398,21.573938 13.833549,21.676056 
	C12.936754,21.429686 12.034808,21.081198 11.120291,20.402317 
	C11.793034,20.468870 12.478349,20.865814 13.468038,21.317308 
z"/>
<path fill="#020174" opacity="1.000000" stroke="none" 
	d="
M14.806585,15.652835 
	C15.428594,15.019924 16.050602,14.387013 16.750961,14.419384 
	C16.808874,15.399872 16.782431,15.714575 16.416254,16.028088 
	C15.657210,15.902546 15.231898,15.777691 14.806585,15.652835 
z"/>
<path fill="#717AEF" opacity="1.000000" stroke="none" 
	d="
M16.749985,16.028774 
	C16.782431,15.714575 16.808874,15.399872 16.892771,14.866856 
	C17.167624,14.389167 17.379023,14.129287 17.799961,13.745111 
	C18.004839,14.107409 18.000177,14.594003 17.726673,15.426804 
	C17.286474,15.856072 17.115118,15.939136 16.895302,16.023363 
	C16.846842,16.024529 16.749985,16.028774 16.749985,16.028774 
z"/>
<path fill="#1115B6" opacity="1.000000" stroke="none" 
	d="
M14.774527,16.133526 
	C15.231898,15.777691 15.657210,15.902546 16.416254,16.028088 
	C16.749985,16.028774 16.846842,16.024529 17.105528,16.436859 
	C17.615644,17.029387 17.867075,17.209579 18.005630,17.568958 
	C17.892754,17.748144 17.673359,18.110443 17.673359,18.110443 
	C16.954714,18.107990 16.236069,18.105536 15.267035,17.820492 
	C14.925252,17.230007 14.833858,16.922112 14.774527,16.133526 
z"/>
<path fill="#1115B6" opacity="1.000000" stroke="none" 
	d="
M14.821367,17.618053 
	C15.137420,17.715900 15.239779,17.940046 15.233644,18.516972 
	C14.952657,18.494616 14.780166,18.119482 14.821367,17.618053 
z"/>
<path fill="#4E5CE5" opacity="1.000000" stroke="none" 
	d="
M14.436054,13.812401 
	C14.446834,13.573097 14.630148,13.521452 14.813461,13.469807 
	C14.745171,13.646557 14.676880,13.823307 14.436054,13.812401 
z"/>
<path fill="#3F3968" opacity="1.000000" stroke="none" 
	d="
M24.929041,32.911907 
	C25.425049,32.758438 25.921057,32.604965 26.891428,32.192024 
	C28.909250,31.255184 30.452709,30.577814 32.234806,29.923355 
	C32.473446,29.946266 32.951908,29.920507 33.167519,30.163567 
	C34.247612,29.913176 35.112091,29.419725 35.992691,28.701660 
	C36.008808,28.477045 36.043858,28.028025 36.036690,28.017988 
	C36.029518,28.007952 36.026146,28.035358 36.397781,28.024548 
	C37.512974,28.008255 38.256535,28.002771 39.257225,28.265995 
	C39.681847,30.025202 39.849342,31.515705 40.012794,33.392967 
	C40.058121,35.024494 40.107491,36.269260 40.156860,37.514023 
	C37.645004,38.925995 35.133148,40.337967 32.308483,41.914631 
	C30.503372,43.055313 29.011066,44.031303 27.221928,45.187813 
	C26.172087,45.278233 25.419073,45.188126 24.261299,44.795376 
	C23.871801,44.309582 23.887068,44.126431 24.205135,43.851494 
	C24.648306,40.143772 24.788673,36.527840 24.929041,32.911907 
z"/>
<path fill="#6E7180" opacity="1.000000" stroke="none" 
	d="
M48.000305,24.000294 
	C48.000317,24.444754 48.000324,24.889215 48.000580,25.667028 
	C47.424881,26.820892 46.848934,27.641405 46.136494,28.730957 
	C46.000000,29.000000 45.999695,29.000475 45.731537,29.146278 
	C45.640881,30.195097 45.818382,31.098108 45.997223,32.251274 
	C46.000107,32.668190 46.001648,32.834953 46.003189,33.001720 
	C44.993767,34.021282 43.984344,35.040840 42.382614,36.056122 
	C41.470215,35.039215 41.150127,34.026588 40.882126,32.632858 
	C40.993420,31.485733 41.052624,30.719713 41.234703,29.862274 
	C41.522266,29.462614 41.437672,29.219919 41.077389,28.780136 
	C41.062027,28.341879 41.073067,28.166254 41.313675,27.996113 
	C41.543236,28.001596 42.003223,28.004429 42.252529,28.003468 
	C42.501835,28.002504 43.000435,27.999435 43.207657,27.877394 
	C43.673370,27.553236 43.867722,27.301584 43.998970,27.000235 
	C44.000000,27.000076 44.003277,27.000916 44.294617,26.968567 
	C45.057053,26.623333 45.528149,26.310446 45.998085,25.744923 
	C45.995480,25.323866 45.994038,25.155445 45.992832,24.657562 
	C45.994270,23.888819 45.995468,23.449537 45.998569,22.758057 
	C46.001133,22.337721 46.001789,22.169584 46.251926,22.001652 
	C46.501411,22.001852 47.000378,22.001526 47.032162,22.293045 
	C47.376064,23.056473 47.688183,23.528383 48.000305,24.000294 
z"/>
<path fill="#2C2163" opacity="1.000000" stroke="none" 
	d="
M40.830040,33.013962 
	C41.150127,34.026588 41.470215,35.039215 42.052345,36.214577 
	C41.750931,36.780472 41.187481,37.183624 40.390442,37.550400 
	C40.107491,36.269260 40.058121,35.024494 40.216007,33.393456 
	C40.423264,33.007179 40.830040,33.013962 40.830040,33.013962 
z"/>
<path fill="#676979" opacity="1.000000" stroke="none" 
	d="
M46.294968,32.969063 
	C46.001648,32.834953 46.000107,32.668190 45.998627,31.999981 
	C45.998974,31.331007 45.999256,31.163481 46.249535,30.997372 
	C46.499523,30.998789 46.999512,30.998398 47.206856,31.119762 
	C47.673222,31.441921 47.868385,31.692453 47.999702,31.992727 
	C47.528717,32.307285 47.057728,32.621849 46.294968,32.969063 
z"/>
<path fill="#6C6F7E" opacity="1.000000" stroke="none" 
	d="
M48.226204,31.809559 
	C47.868385,31.692453 47.673222,31.441921 47.206963,30.787224 
	C46.999687,29.889109 46.999660,29.444899 46.999634,29.000687 
	C47.494556,29.257195 47.989475,29.513702 48.738747,29.884258 
	C48.812962,30.540997 48.632832,31.083693 48.226204,31.809559 
z"/>
<path fill="#EDD7C6" opacity="1.000000" stroke="none" 
	d="
M38.166748,17.126513 
	C38.884518,17.438696 39.602291,17.750877 40.791924,18.342869 
	C41.832973,18.767448 42.402164,18.912216 43.036880,19.283003 
	C43.359608,19.900816 43.616810,20.292612 43.556786,20.760532 
	C42.809486,20.846521 42.379406,20.856386 41.822311,20.681900 
	C41.139496,20.411995 40.583694,20.326445 39.767715,19.923922 
	C38.976471,18.739115 38.445404,17.871279 37.962646,17.064550 
	C38.010956,17.125656 38.166748,17.126513 38.166748,17.126513 
z"/>
<path fill="#F7DB00" opacity="1.000000" stroke="none" 
	d="
M34.642258,9.536996 
	C35.427422,9.665972 35.847034,9.839597 36.611504,10.070074 
	C36.956356,10.126927 37.002342,10.522774 36.756912,10.840483 
	C36.019192,11.474752 35.526897,11.791313 34.716698,12.104572 
	C33.991608,12.213460 33.584415,12.325651 33.004517,12.133947 
	C32.480621,11.528372 32.129429,11.226692 31.778238,10.925012 
	C32.611061,10.477222 33.443882,10.029434 34.642258,9.536996 
z"/>
<path fill="#DF8200" opacity="1.000000" stroke="none" 
	d="
M35.034603,12.107874 
	C35.526897,11.791313 36.019192,11.474752 36.779156,11.038492 
	C37.348995,11.717051 37.651165,12.515308 37.591644,13.651339 
	C36.828358,13.965859 36.426762,13.942608 35.903973,13.691406 
	C35.533386,13.011597 35.283997,12.559734 35.034603,12.107874 
z"/>
<path fill="#DE8000" opacity="1.000000" stroke="none" 
	d="
M36.025166,13.919355 
	C36.426762,13.942608 36.828358,13.965859 37.531368,13.994047 
	C37.901394,14.781410 37.970005,15.563837 38.102684,16.736389 
	C38.166748,17.126513 38.010956,17.125656 37.730999,16.946699 
	C37.000057,16.510799 36.549076,16.253855 36.073181,15.663195 
	C36.033470,14.883711 36.018665,14.437945 36.007790,13.973810 
	C36.011711,13.955441 36.025166,13.919355 36.025166,13.919355 
z"/>
<path fill="#7F8390" opacity="1.000000" stroke="none" 
	d="
M42.971352,19.056986 
	C42.402164,18.912216 41.832973,18.767448 41.085335,18.386234 
	C40.923248,17.955658 40.939613,17.761524 40.974701,17.275507 
	C41.454605,16.991608 41.915794,16.999592 42.874100,17.175255 
	C43.237930,17.914282 43.104641,18.485634 42.971352,19.056986 
z"/>
<path fill="#EB3400" opacity="1.000000" stroke="none" 
	d="
M21.099686,12.390441 
	C21.262659,12.123100 21.425632,11.855759 21.371235,11.429489 
	C21.153866,11.270560 21.116892,11.198302 21.252325,11.558216 
	C21.995741,11.608046 22.603722,11.297962 23.211704,10.987879 
	C23.211704,10.987879 23.488522,10.861322 23.505629,10.713572 
	C24.140152,9.795357 24.757570,9.024892 25.665493,8.204102 
	C26.036057,8.341202 26.116112,8.528625 26.267937,9.303626 
	C26.259331,10.887994 26.178953,11.884782 25.805634,13.049509 
	C24.913311,13.469481 24.313934,13.721517 23.438744,13.627290 
	C22.754055,12.958855 22.345181,12.636682 21.836941,12.222520 
	C21.471212,12.078937 21.258583,12.165573 21.099686,12.390441 
z"/>
<path fill="#7A0001" opacity="1.000000" stroke="none" 
	d="
M26.098577,12.881570 
	C26.178953,11.884782 26.259331,10.887994 26.470203,9.532852 
	C27.385784,9.803485 28.170866,10.432471 28.937256,11.427189 
	C28.918562,11.792919 28.929276,12.001085 28.642555,12.027907 
	C27.901299,12.367446 27.446764,12.680161 26.767321,12.977074 
	C26.542410,12.961269 26.098577,12.881570 26.098577,12.881570 
z"/>
<path fill="#F7DE00" opacity="1.000000" stroke="none" 
	d="
M31.497789,10.969540 
	C32.129429,11.226692 32.480621,11.528372 32.798912,12.311937 
	C32.176693,13.236901 31.587378,13.679980 30.769367,14.083776 
	C30.540670,14.044496 30.077284,14.026101 29.836763,13.842496 
	C29.373920,13.106289 29.151598,12.553687 28.929276,12.001085 
	C28.929276,12.001085 28.918562,11.792919 28.992279,11.718870 
	C29.783112,11.434570 30.500227,11.224319 31.497789,10.969540 
z"/>
<path fill="#A8A9BE" opacity="1.000000" stroke="none" 
	d="
M11.835262,28.159359 
	C12.587816,28.032146 13.074999,28.123634 13.712021,28.473007 
	C13.861861,28.730894 13.892179,29.022549 13.630655,29.125862 
	C13.049947,30.080488 12.730764,30.931797 12.076254,31.847630 
	C11.516091,31.947855 11.291257,31.983557 11.046803,31.765171 
	C11.014511,31.341660 11.001838,31.172235 10.989163,31.002810 
	C11.182739,30.127892 11.376314,29.252975 11.835262,28.159359 
z"/>
<path fill="#9A9BA1" opacity="1.000000" stroke="none" 
	d="
M10.698697,31.033165 
	C11.001838,31.172235 11.014511,31.341660 11.026900,32.010540 
	C11.026617,32.509998 10.990402,33.001289 10.742563,33.000637 
	C10.494724,32.999985 9.999044,32.999317 9.999044,32.999317 
	C9.832333,32.998791 9.665622,32.998264 9.248384,32.746315 
	C8.996858,32.327713 8.995857,32.160538 8.994856,31.993359 
	C9.465981,31.683413 9.937106,31.373466 10.698697,31.033165 
z"/>
<path fill="#9B9CA2" opacity="1.000000" stroke="none" 
	d="
M8.743683,31.896057 
	C8.995857,32.160538 8.996858,32.327713 8.998318,32.745617 
	C8.249013,32.997482 7.499247,32.998627 6.374569,32.999580 
	C6.830608,32.599178 7.661559,32.198967 8.743683,31.896057 
z"/>
<path fill="#757887" opacity="1.000000" stroke="none" 
	d="
M43.036880,19.283003 
	C43.104641,18.485634 43.237930,17.914282 43.219894,17.181969 
	C43.522617,16.715313 43.976665,16.409622 44.707497,16.324799 
	C44.979160,16.721519 44.974033,16.897377 44.970291,17.299530 
	C44.971680,17.525824 44.979065,17.978359 44.979065,17.978359 
	C45.448872,18.299484 45.918678,18.620609 46.680573,18.978153 
	C46.977390,19.182375 46.982117,19.350180 46.993439,20.099447 
	C47.000149,21.121117 47.000263,21.561321 47.000378,22.001526 
	C47.000378,22.001526 46.501411,22.001852 45.999062,22.001862 
	C45.328163,22.002937 45.159607,22.004005 44.751938,21.834408 
	C44.299881,21.337297 44.086945,21.010853 43.874008,20.684406 
	C43.616810,20.292612 43.359608,19.900816 43.036880,19.283003 
z"/>
<path fill="#898F9C" opacity="1.000000" stroke="none" 
	d="
M44.968906,17.073235 
	C44.974033,16.897377 44.979160,16.721519 44.989006,16.282932 
	C44.995792,15.570971 44.997852,15.121742 45.000126,14.336279 
	C45.000343,14.000043 45.500233,14.000133 45.750183,14.000191 
	C46.000088,14.750194 46.000042,15.500139 46.000050,16.625084 
	C46.000103,17.000086 45.998722,17.001856 45.738777,17.016729 
	C45.308861,17.045479 45.138885,17.059357 44.968906,17.073235 
z"/>
<path fill="#8D8E96" opacity="1.000000" stroke="none" 
	d="
M9.317532,45.966225 
	C8.556528,46.000835 8.112523,46.000759 7.335573,46.000874 
	C7.002124,45.834225 7.001619,45.667385 7.210792,44.992683 
	C9.336617,42.610050 11.252766,40.735271 13.357817,38.886848 
	C13.546720,38.913204 13.927851,38.893036 14.098163,39.135441 
	C14.622549,39.537384 14.976624,39.696922 15.478964,39.866920 
	C15.627229,39.877380 15.924207,39.890491 16.048819,40.117805 
	C16.452810,40.536625 16.732191,40.728138 17.046307,40.887611 
	C17.081043,40.855576 17.175457,40.851334 17.005383,41.175133 
	C16.556288,42.664738 16.277271,43.830536 15.598442,44.996956 
	C14.132458,44.998432 13.066286,44.999290 12.000114,45.000153 
	C11.211586,45.310616 10.423058,45.621075 9.317532,45.966225 
z"/>
<path fill="#919299" opacity="1.000000" stroke="none" 
	d="
M13.168915,38.860493 
	C11.252766,40.735271 9.336617,42.610050 7.210378,44.742424 
	C6.666954,43.589725 6.333623,42.179436 6.346477,40.378712 
	C7.795019,39.325420 8.897376,38.662560 10.244783,37.990135 
	C10.489833,37.980576 10.979738,37.956974 11.229692,37.954933 
	C11.479645,37.952892 11.976974,37.907639 12.025301,37.908836 
	C12.073627,37.910030 12.090549,38.005219 12.175419,38.216969 
	C12.443399,38.693348 12.693000,38.855919 13.043901,38.887756 
	C13.078714,38.859077 13.168915,38.860493 13.168915,38.860493 
z"/>
<path fill="#92949B" opacity="1.000000" stroke="none" 
	d="
M9.999733,37.999695 
	C8.897376,38.662560 7.795019,39.325420 6.346493,39.994522 
	C6.000222,39.833897 6.000120,39.667027 5.999982,39.249851 
	C6.130584,38.698097 6.325324,38.446217 7.166687,38.121826 
	C8.499383,37.999737 9.249557,37.999714 9.999733,37.999695 
z"/>
<path fill="#94959C" opacity="1.000000" stroke="none" 
	d="
M10.244783,37.990135 
	C9.249557,37.999714 8.499383,37.999737 7.374088,37.999496 
	C7.977170,36.508575 8.955374,35.017914 9.966311,33.263287 
	C9.999044,32.999317 10.494724,32.999985 10.753690,33.384304 
	C11.037108,34.791851 11.061562,35.815079 11.052153,37.117279 
	C11.005439,37.583164 10.992588,37.770069 10.979738,37.956974 
	C10.979738,37.956974 10.489833,37.980576 10.244783,37.990135 
z"/>
<path fill="#05036B" opacity="1.000000" stroke="none" 
	d="
M23.000816,10.649158 
	C22.603722,11.297962 21.995741,11.608046 21.219894,11.533817 
	C21.000761,10.938574 20.949492,10.727643 21.083982,10.248022 
	C21.776472,10.089699 22.283199,10.200068 23.000816,10.649158 
z"/>
<path fill="#81838E" opacity="1.000000" stroke="none" 
	d="
M23.902334,43.943279 
	C23.887068,44.126431 23.871801,44.309582 23.881687,44.767410 
	C23.623096,45.507290 23.339355,45.972492 23.027693,46.718773 
	C21.933302,47.000088 20.866835,47.000328 19.400127,46.749916 
	C18.999565,46.332233 18.999241,46.165203 19.066553,45.669224 
	C20.050850,44.818726 20.967510,44.297173 22.261227,43.818649 
	C22.890356,43.848183 23.142427,43.834694 23.525341,43.835575 
	C23.656181,43.849949 23.902334,43.943279 23.902334,43.943279 
z"/>
<path fill="#898A93" opacity="1.000000" stroke="none" 
	d="
M12.000117,45.375183 
	C13.066286,44.999290 14.132458,44.998432 15.599079,45.247742 
	C15.999711,45.665070 15.999894,45.832230 16.000076,45.999390 
	C14.893214,46.660931 13.786353,47.322468 12.340013,47.992233 
	C12.000396,47.250378 12.000257,46.500294 12.000117,45.375183 
z"/>
<path fill="#83858F" opacity="1.000000" stroke="none" 
	d="
M18.998917,45.998169 
	C18.999241,46.165203 18.999565,46.332233 19.000202,46.749840 
	C19.000515,47.000412 19.000235,47.500267 19.000187,47.750202 
	C18.555794,48.000118 18.111448,48.000095 17.333622,48.000088 
	C17.000122,47.555775 17.000107,47.111450 17.333279,46.333344 
	C18.110617,45.999096 18.554766,45.998634 18.998917,45.998169 
z"/>
<path fill="#898A93" opacity="1.000000" stroke="none" 
	d="
M19.066553,45.669224 
	C18.554766,45.998634 18.110617,45.999096 17.333347,45.999855 
	C16.833536,46.000008 16.666845,45.999863 16.250114,45.999550 
	C15.999894,45.832230 15.999711,45.665070 15.998891,45.247124 
	C16.277271,43.830536 16.556288,42.664738 17.194923,41.203819 
	C17.554543,40.908699 17.937698,40.890583 18.114925,41.131943 
	C18.654032,41.527298 19.015913,41.681297 19.514502,41.838734 
	C19.651209,41.842171 19.920973,41.887230 20.096493,42.127110 
	C20.626253,42.529663 20.980492,42.692337 21.511063,42.822411 
	C21.687391,42.789814 22.017834,42.650440 22.048956,42.720810 
	C22.080078,42.791180 22.083080,42.945042 22.024818,43.150642 
	C21.966558,43.356247 21.884171,43.775623 21.884171,43.775620 
	C20.967510,44.297173 20.050850,44.818726 19.066553,45.669224 
z"/>
<path fill="#7F8390" opacity="1.000000" stroke="none" 
	d="
M44.970291,17.299530 
	C45.138885,17.059357 45.308861,17.045479 45.734329,17.023125 
	C45.856098,17.311031 45.658958,17.556482 45.188736,17.864681 
	C44.979065,17.978359 44.971680,17.525824 44.970291,17.299530 
z"/>
<path fill="#6E7180" opacity="1.000000" stroke="none" 
	d="
M46.749702,29.000465 
	C46.999660,29.444899 46.999687,29.889109 46.999615,30.665859 
	C46.999512,30.998398 46.499523,30.998789 46.249931,30.664845 
	C46.000122,29.887426 45.999908,29.443951 45.999695,29.000475 
	C45.999695,29.000475 46.000000,29.000000 45.999954,29.000053 
	C45.999908,29.000107 46.499771,29.000242 46.749702,29.000465 
z"/>
<path fill="#6E7281" opacity="1.000000" stroke="none" 
	d="
M47.032162,22.293045 
	C47.000263,21.561321 47.000149,21.121117 46.999207,20.351185 
	C47.580830,20.496740 48.163277,20.972021 48.876774,21.701584 
	C48.824768,22.511385 48.641712,23.066906 48.229485,23.811361 
	C47.688183,23.528383 47.376064,23.056473 47.032162,22.293045 
z"/>
<path fill="#B1B2BE" opacity="1.000000" stroke="none" 
	d="
M24.205135,43.851494 
	C23.902334,43.943279 23.656181,43.849949 23.385242,43.584000 
	C22.770563,43.193710 22.426823,43.069374 22.083080,42.945038 
	C22.083080,42.945042 22.080078,42.791180 22.044155,42.364815 
	C22.788332,38.594467 22.849886,35.419781 19.958763,32.708775 
	C20.100803,32.307377 20.176037,32.153736 20.438372,31.991289 
	C20.625475,31.982483 20.998522,31.948191 20.998522,31.948189 
	C22.147047,32.109238 23.295572,32.270283 24.686569,32.671619 
	C24.788673,36.527840 24.648306,40.143772 24.205135,43.851494 
z"/>
<path fill="#6F7692" opacity="1.000000" stroke="none" 
	d="
M31.996168,29.900444 
	C30.452709,30.577814 28.909250,31.255184 26.989292,31.933006 
	C26.411821,31.166550 26.210850,30.399639 26.394112,29.265793 
	C27.583994,27.892740 28.389645,26.886627 29.313206,25.813759 
	C29.431120,25.747002 29.677320,25.860416 29.619606,26.261257 
	C30.345383,26.683348 31.128878,26.704599 31.937515,27.123409 
	C31.973831,28.314127 31.985001,29.107286 31.996168,29.900444 
z"/>
<path fill="#010039" opacity="1.000000" stroke="none" 
	d="
M20.251268,32.000095 
	C20.176037,32.153736 20.100803,32.307377 19.678715,32.772953 
	C17.895363,32.747360 16.458864,32.409832 15.019171,31.749157 
	C15.017946,30.996794 15.019917,30.567581 15.314253,30.041355 
	C16.088625,29.589678 16.570637,29.235008 17.052647,28.880341 
	C18.009699,29.397596 18.966747,29.914852 20.051456,30.972883 
	C20.179119,31.513659 20.251268,32.000095 20.251268,32.000095 
z"/>
<path fill="#FEF7E8" opacity="1.000000" stroke="none" 
	d="
M29.195293,25.880516 
	C28.389645,26.886627 27.583994,27.892740 26.390598,28.954433 
	C25.818262,28.722603 25.633673,28.435192 25.224949,27.835077 
	C25.000814,27.522371 25.000023,27.165361 25.343204,27.065819 
	C26.437147,26.645639 27.187908,26.325006 28.202496,25.854362 
	C28.668467,25.698683 28.870615,25.693018 29.069408,25.757202 
	C29.066057,25.827053 29.195295,25.880516 29.195293,25.880516 
z"/>
<path fill="#CB9F87" opacity="1.000000" stroke="none" 
	d="
M16.743362,22.942196 
	C16.643394,22.835686 16.599087,22.423071 16.898331,22.413280 
	C17.448050,21.957939 17.698523,21.512390 18.022305,20.799259 
	C18.081676,20.347242 18.067739,20.162806 18.053801,19.978371 
	C18.053801,19.978371 18.197710,20.115324 18.447430,20.077948 
	C18.697151,20.040571 19.006840,20.004610 19.181767,20.185371 
	C19.473400,20.486557 19.590103,20.606983 19.697529,21.000237 
	C19.740911,21.625113 19.793570,21.977163 19.527390,22.492504 
	C19.047283,22.831938 18.886013,23.008078 18.499054,23.344475 
	C18.335337,23.678545 18.397310,23.852362 18.459284,24.026176 
	C17.920631,23.700354 17.381979,23.374531 16.743362,22.942196 
z"/>
<path fill="#47195A" opacity="1.000000" stroke="none" 
	d="
M16.925625,28.601299 
	C16.570637,29.235008 16.088625,29.589678 15.087076,29.894730 
	C14.342419,29.570927 14.117299,29.296738 13.892179,29.022549 
	C13.892179,29.022549 13.861861,28.730894 13.928513,28.600225 
	C14.929643,28.420458 15.864121,28.371359 16.925625,28.601299 
z"/>
<path fill="#FEF5E6" opacity="1.000000" stroke="none" 
	d="
M24.035284,26.967163 
	C23.052809,26.541830 22.070333,26.116497 21.041479,25.277573 
	C20.995098,24.863983 21.116270,24.816586 21.394669,24.938297 
	C22.399569,25.374329 23.126068,25.688650 23.909222,26.236351 
	C23.965872,26.469728 24.059946,26.940735 24.053368,26.947269 
	C24.046789,26.953804 24.035284,26.967161 24.035284,26.967163 
z"/>
<path fill="#110E6E" opacity="1.000000" stroke="none" 
	d="
M20.975945,24.926155 
	C20.663343,24.847692 20.369898,24.707058 20.007421,24.057953 
	C19.935379,23.376572 19.932369,23.203659 20.349545,22.935532 
	C21.052135,22.791151 21.334545,22.741987 21.479710,22.938076 
	C21.267069,23.727747 21.191669,24.272167 21.116270,24.816586 
	C21.116270,24.816586 20.995098,24.863983 20.975945,24.926155 
z"/>
<path fill="#150053" opacity="1.000000" stroke="none" 
	d="
M19.929359,23.030748 
	C19.932369,23.203659 19.935379,23.376572 19.943890,23.808483 
	C19.701675,24.036819 19.453957,24.006153 18.832762,24.000832 
	C18.397310,23.852362 18.335337,23.678545 18.794697,23.255589 
	C19.520472,23.014545 19.724916,23.022648 19.929359,23.030748 
z"/>
<path fill="#FEF5E6" opacity="1.000000" stroke="none" 
	d="
M25.000023,27.165361 
	C25.000023,27.165361 25.000814,27.522371 25.001690,27.700283 
	C24.705788,27.740339 24.409008,27.602484 24.073757,27.215895 
	C24.035284,26.967161 24.046789,26.953804 24.290770,26.993458 
	C24.534750,27.033112 25.000023,27.165361 25.000023,27.165361 
z"/>
<path fill="#B2B3BF" opacity="1.000000" stroke="none" 
	d="
M20.438372,31.991289 
	C20.251268,32.000095 20.179119,31.513659 20.217600,31.270830 
	C20.490290,31.169270 20.679811,31.355904 20.911583,31.768047 
	C20.998522,31.948191 20.625475,31.982483 20.438372,31.991289 
z"/>
<path fill="#CB9F87" opacity="1.000000" stroke="none" 
	d="
M17.701160,18.271706 
	C17.673359,18.110443 17.892754,17.748144 18.166023,17.603178 
	C18.640095,16.967520 18.840897,16.476830 19.041700,15.986138 
	C19.041700,15.986138 19.445055,15.856315 19.783623,15.958038 
	C20.122192,16.059761 20.281338,16.379946 20.189327,16.688072 
	C20.351187,17.494106 20.605053,17.992014 20.764885,18.504215 
	C20.670847,18.518513 20.514959,18.627542 20.341703,19.070137 
	C20.166851,19.829592 20.165253,20.146452 20.041214,20.515102 
	C19.918776,20.566895 19.706806,20.727407 19.706806,20.727407 
	C19.590103,20.606983 19.473400,20.486557 19.082708,19.971258 
	C18.623711,19.314608 18.389698,19.108458 18.106682,18.957933 
	C17.944792,18.808847 17.818886,18.633860 17.701160,18.271706 
z"/>
<path fill="#05036B" opacity="1.000000" stroke="none" 
	d="
M20.281338,16.379946 
	C20.281338,16.379946 20.122192,16.059761 19.994102,15.933819 
	C20.107342,15.712929 20.243069,15.536612 20.678078,15.063166 
	C21.394869,14.560646 21.706768,14.273885 22.109306,13.563492 
	C22.112068,12.864744 22.024189,12.589626 21.936308,12.314508 
	C22.345181,12.636682 22.754055,12.958855 23.521145,13.850482 
	C23.879360,14.419936 23.955044,14.889227 23.682478,15.068337 
	C23.239380,15.861631 23.068848,16.475815 22.654959,17.139688 
	C22.411602,17.189377 21.917080,17.142290 21.709234,16.901878 
	C21.094706,16.567625 20.688021,16.473785 20.281338,16.379946 
z"/>
<path fill="#D38A68" opacity="1.000000" stroke="none" 
	d="
M18.761259,15.940453 
	C18.840897,16.476830 18.640095,16.967520 18.278900,17.423992 
	C17.867075,17.209579 17.615644,17.029387 17.153988,16.435696 
	C17.115118,15.939136 17.286474,15.856072 17.728848,15.682545 
	C18.160185,15.692974 18.320501,15.793871 18.761259,15.940453 
z"/>
<path fill="#05036B" opacity="1.000000" stroke="none" 
	d="
M20.837967,12.811969 
	C21.258583,12.165573 21.471212,12.078937 21.836941,12.222520 
	C22.024189,12.589626 22.112068,12.864744 21.703747,13.599670 
	C20.941019,14.110139 20.674490,14.160799 20.407963,14.211460 
	C20.464058,13.885471 20.520153,13.559484 20.837967,12.811969 
z"/>
<path fill="#050896" opacity="1.000000" stroke="none" 
	d="
M20.355793,14.402165 
	C20.674490,14.160799 20.941019,14.110139 21.613106,14.023301 
	C21.706768,14.273885 21.394869,14.560646 20.757881,14.907005 
	C20.432795,14.966603 20.303625,14.592871 20.355793,14.402165 
z"/>
<path fill="#010060" opacity="1.000000" stroke="none" 
	d="
M17.948996,21.066839 
	C17.698523,21.512390 17.448050,21.957939 16.823711,22.219669 
	C16.603680,21.904131 16.757515,21.772411 17.239382,21.363707 
	C17.567413,21.086723 17.948996,21.066839 17.948996,21.066839 
z"/>
<path fill="#381C60" opacity="1.000000" stroke="none" 
	d="
M18.022305,20.799259 
	C17.948996,21.066839 17.567413,21.086723 17.376701,21.092731 
	C17.294231,20.764603 17.402473,20.430466 17.782259,20.037350 
	C18.067739,20.162806 18.081676,20.347242 18.022305,20.799259 
z"/>
<path fill="#C37E6D" opacity="1.000000" stroke="none" 
	d="
M18.151421,19.243053 
	C18.389698,19.108458 18.623711,19.314608 18.907780,19.790497 
	C19.006840,20.004610 18.697151,20.040571 18.544298,20.055962 
	C18.326351,19.890295 18.261255,19.709234 18.151421,19.243053 
z"/>
<path fill="#6A728E" opacity="1.000000" stroke="none" 
	d="
M43.556786,20.760532 
	C44.086945,21.010853 44.299881,21.337297 44.876129,22.041960 
	C45.443203,22.679293 45.695614,22.875986 45.996666,23.010256 
	C45.995468,23.449537 45.994270,23.888819 45.689438,24.523123 
	C43.907780,25.155598 42.429752,25.593052 40.679634,26.122673 
	C39.938389,26.808989 39.469238,27.403137 39.000092,27.997288 
	C38.256535,28.002771 37.512974,28.008255 36.388393,27.670391 
	C36.009357,26.386740 36.011349,25.446432 36.246170,24.246933 
	C36.634052,23.337378 36.789101,22.687017 37.467880,21.501026 
	C38.481964,20.870625 38.972309,20.775854 39.173649,20.907978 
	C39.906200,21.045330 40.927765,20.955790 41.949326,20.866251 
	C42.379406,20.856386 42.809486,20.846521 43.556786,20.760532 
z"/>
<path fill="#6D7590" opacity="1.000000" stroke="none" 
	d="
M36.013336,24.506126 
	C36.011349,25.446432 36.009357,26.386740 36.016758,27.681202 
	C36.026146,28.035358 36.029518,28.007952 35.761040,28.012749 
	C35.309006,28.019838 35.125450,28.022131 34.681664,28.133907 
	C33.931587,28.802431 33.441746,29.361469 32.951908,29.920507 
	C32.951908,29.920507 32.473446,29.946266 32.234806,29.923355 
	C31.985001,29.107286 31.973831,28.314127 32.108170,26.879368 
	C33.506897,25.660557 34.760117,25.083342 36.013336,24.506126 
z"/>
<path fill="#312764" opacity="1.000000" stroke="none" 
	d="
M39.257225,28.265993 
	C39.469238,27.403137 39.938389,26.808989 40.720833,26.373138 
	C41.063011,26.698263 41.091896,26.865088 41.085243,27.270582 
	C41.049698,27.509253 41.084110,27.990629 41.084110,27.990629 
	C41.073067,28.166254 41.062027,28.341879 41.057327,29.007912 
	C41.063671,29.498320 41.111832,29.953691 41.111832,29.953691 
	C41.052624,30.719713 40.993420,31.485733 40.882126,32.632858 
	C40.830040,33.013962 40.423264,33.007179 40.220047,33.006691 
	C39.849342,31.515705 39.681847,30.025202 39.257225,28.265993 
z"/>
<path fill="#3E3867" opacity="1.000000" stroke="none" 
	d="
M33.167519,30.163567 
	C33.441746,29.361469 33.931587,28.802431 34.800877,28.340744 
	C35.380836,28.706707 35.646252,28.869432 35.976574,28.926275 
	C35.112091,29.419725 34.247612,29.913176 33.167519,30.163567 
z"/>
<path fill="#6A728E" opacity="1.000000" stroke="none" 
	d="
M35.992691,28.701660 
	C35.646252,28.869432 35.380836,28.706707 35.061111,28.231258 
	C35.125450,28.022131 35.309006,28.019838 35.768208,28.022785 
	C36.043858,28.028025 36.008808,28.477045 35.992691,28.701660 
z"/>
<path fill="#737785" opacity="1.000000" stroke="none" 
	d="
M41.120785,27.031912 
	C41.091896,26.865088 41.063011,26.698263 40.992928,26.280972 
	C42.429752,25.593052 43.907780,25.155598 45.689201,24.852585 
	C45.994038,25.155445 45.995480,25.323866 45.706715,25.777477 
	C44.945427,26.375418 44.474354,26.688166 44.003277,27.000916 
	C44.003277,27.000916 44.000000,27.000076 43.792145,27.122707 
	C43.326118,27.447495 43.131500,27.698860 43.000435,27.999435 
	C43.000435,27.999435 42.501835,28.002504 42.146336,27.806568 
	C41.616161,27.361366 41.392811,27.168459 41.120785,27.031912 
z"/>
<path fill="#6C6F7E" opacity="1.000000" stroke="none" 
	d="
M45.731541,29.146278 
	C45.999908,29.443951 46.000122,29.887426 45.999939,30.663429 
	C45.999256,31.163481 45.998974,31.331007 45.997284,31.749828 
	C45.818382,31.098108 45.640881,30.195097 45.731541,29.146278 
z"/>
<path fill="#6E7281" opacity="1.000000" stroke="none" 
	d="
M44.294617,26.968567 
	C44.474354,26.688166 44.945427,26.375418 45.707878,26.030113 
	C45.528149,26.310446 45.057053,26.623333 44.294617,26.968567 
z"/>
<path fill="#737785" opacity="1.000000" stroke="none" 
	d="
M45.998573,22.758057 
	C45.695614,22.875986 45.443203,22.679293 45.115250,22.212627 
	C45.159607,22.004005 45.328163,22.002937 45.749580,22.001659 
	C46.001789,22.169584 46.001133,22.337721 45.998573,22.758057 
z"/>
<path fill="#747786" opacity="1.000000" stroke="none" 
	d="
M41.085243,27.270582 
	C41.392811,27.168459 41.616161,27.361366 41.897030,27.807531 
	C42.003223,28.004429 41.543236,28.001596 41.313675,27.996113 
	C41.084110,27.990629 41.049698,27.509253 41.085243,27.270582 
z"/>
<path fill="#757887" opacity="1.000000" stroke="none" 
	d="
M43.207657,27.877394 
	C43.131500,27.698860 43.326118,27.447495 43.791115,27.122868 
	C43.867722,27.301584 43.673370,27.553236 43.207657,27.877394 
z"/>
<path fill="#757887" opacity="1.000000" stroke="none" 
	d="
M41.234703,29.862274 
	C41.111832,29.953691 41.063671,29.498320 41.083733,29.270546 
	C41.437672,29.219919 41.522266,29.462614 41.234703,29.862274 
z"/>
<path fill="#DD7D01" opacity="1.000000" stroke="none" 
	d="
M39.462658,20.681086 
	C38.972309,20.775854 38.481964,20.870625 37.489040,21.475929 
	C36.986465,21.986462 37.040699,22.023933 37.319454,21.618044 
	C37.070007,20.956957 36.541809,20.701761 35.834496,20.298668 
	C35.399506,19.769217 35.143623,19.387657 35.023773,18.710041 
	C35.472569,17.608292 35.785328,16.802601 36.098091,15.996912 
	C36.549076,16.253855 37.000057,16.510799 37.682690,16.885593 
	C38.445404,17.871279 38.976471,18.739115 39.709854,20.008627 
	C39.790585,20.540085 39.640747,20.630344 39.462658,20.681086 
z"/>
<path fill="#FEF5E6" opacity="1.000000" stroke="none" 
	d="
M39.173649,20.907978 
	C39.640747,20.630344 39.790585,20.540085 39.970032,20.325598 
	C40.583694,20.326445 41.139496,20.411995 41.822311,20.681900 
	C40.927765,20.955790 39.906200,21.045330 39.173649,20.907978 
z"/>
<path fill="#E38501" opacity="1.000000" stroke="none" 
	d="
M30.998062,14.123058 
	C31.587378,13.679980 32.176693,13.236901 32.971619,12.615833 
	C33.584415,12.325651 33.991608,12.213460 34.716698,12.104571 
	C35.283997,12.559734 35.533386,13.011597 35.903973,13.691406 
	C36.025166,13.919355 36.011711,13.955441 35.689896,14.061993 
	C34.231800,14.836322 33.095520,15.504097 31.751152,15.966522 
	C31.361397,15.215133 31.179729,14.669096 30.998062,14.123058 
z"/>
<path fill="#91400C" opacity="1.000000" stroke="none" 
	d="
M31.959238,16.171873 
	C33.095520,15.504097 34.231800,14.836322 35.685974,14.080362 
	C36.018665,14.437945 36.033470,14.883711 36.073181,15.663195 
	C35.785328,16.802601 35.472569,17.608292 34.674759,18.708807 
	C33.488449,19.043772 32.787189,19.083910 32.038219,19.136106 
	C31.990511,19.148165 31.944731,19.061039 32.093906,18.813021 
	C32.009953,18.067373 31.776819,17.569744 31.653492,16.944160 
	C31.876770,16.616079 31.942083,16.401300 31.959238,16.171873 
z"/>
<path fill="#F9EC02" opacity="1.000000" stroke="none" 
	d="
M23.955044,14.889227 
	C23.955044,14.889227 23.879360,14.419936 23.796959,14.196744 
	C24.313934,13.721517 24.913311,13.469481 25.805634,13.049509 
	C26.098577,12.881570 26.542410,12.961269 26.806797,13.277699 
	C27.408400,14.071900 27.745617,14.549674 27.942181,15.298712 
	C27.297825,16.208269 26.794121,16.846561 26.096420,17.176418 
	C25.253298,16.208399 24.604172,15.548813 23.955044,14.889227 
z"/>
<path fill="#F8E601" opacity="1.000000" stroke="none" 
	d="
M28.082832,15.027448 
	C27.745617,14.549674 27.408400,14.071900 27.031708,13.293502 
	C27.446764,12.680161 27.901299,12.367446 28.642555,12.027907 
	C29.151598,12.553687 29.373920,13.106289 29.664066,14.080950 
	C29.182203,14.677822 28.632519,14.852635 28.082832,15.027448 
z"/>
<path fill="#E18200" opacity="1.000000" stroke="none" 
	d="
M27.942181,15.298712 
	C28.632519,14.852635 29.182203,14.677822 29.904587,14.264555 
	C30.077284,14.026101 30.540670,14.044496 30.769367,14.083776 
	C31.179729,14.669096 31.361397,15.215133 31.751152,15.966522 
	C31.942083,16.401300 31.876770,16.616079 31.242634,16.841438 
	C30.199717,17.716764 29.677460,18.566860 28.926147,19.678686 
	C27.903349,21.567801 27.109608,23.195181 26.318357,24.810909 
	C26.320847,24.799253 26.319420,24.823929 25.914268,24.799572 
	C25.239796,24.801394 24.970476,24.827568 24.736322,24.469509 
	C24.851423,23.063030 24.931358,22.040783 25.256210,20.800247 
	C25.764225,19.549589 26.027321,18.517221 26.290417,17.484854 
	C26.794121,16.846561 27.297825,16.208269 27.942181,15.298712 
z"/>
<path fill="#B2B3BF" opacity="1.000000" stroke="none" 
	d="
M15.022367,32.072304 
	C16.458864,32.409832 17.895363,32.747360 19.611908,33.020710 
	C22.849886,35.419781 22.788332,38.594467 22.013035,42.294449 
	C22.017834,42.650440 21.687391,42.789814 21.357941,42.554508 
	C20.659319,42.175209 20.290146,42.031219 19.920973,41.887230 
	C19.920973,41.887230 19.651209,41.842171 19.355915,41.571716 
	C18.686316,41.164371 18.312006,41.027477 17.937698,40.890583 
	C17.937698,40.890583 17.554543,40.908699 17.365000,40.880016 
	C17.175457,40.851334 17.081043,40.855576 17.011915,40.597786 
	C16.603262,40.190163 16.263735,40.040325 15.924208,39.890488 
	C15.924207,39.890491 15.627229,39.877380 15.329807,39.597610 
	C14.664207,39.176235 14.296029,39.034637 13.927851,38.893036 
	C13.927851,38.893036 13.546720,38.913204 13.357817,38.886848 
	C13.168915,38.860493 13.078714,38.859077 13.032735,38.625443 
	C12.688020,38.262943 12.389285,38.134079 12.090549,38.005219 
	C12.090549,38.005219 12.073627,37.910030 11.954945,37.675663 
	C11.652470,37.157829 11.402388,36.956833 11.086014,36.838306 
	C11.061562,35.815079 11.037108,34.791851 11.001529,33.384956 
	C10.990402,33.001289 11.026617,32.509998 11.046519,32.264629 
	C11.291257,31.983557 11.516091,31.947855 12.346395,31.883577 
	C13.642033,31.927437 14.332200,31.999870 15.022367,32.072304 
z"/>
<path fill="#070042" opacity="1.000000" stroke="none" 
	d="
M15.019171,31.749157 
	C14.332200,31.999870 13.642033,31.927437 12.681724,31.819054 
	C12.730764,30.931797 13.049947,30.080488 13.630655,29.125862 
	C14.117299,29.296738 14.342419,29.570927 14.794714,29.991741 
	C15.019917,30.567581 15.017946,30.996794 15.019171,31.749157 
z"/>
<path fill="#898A93" opacity="1.000000" stroke="none" 
	d="
M16.048819,40.117802 
	C16.263735,40.040325 16.603262,40.190163 16.977180,40.629822 
	C16.732191,40.728138 16.452810,40.536625 16.048819,40.117802 
z"/>
<path fill="#8B8B94" opacity="1.000000" stroke="none" 
	d="
M14.098163,39.135441 
	C14.296029,39.034637 14.664207,39.176235 15.181541,39.587151 
	C14.976624,39.696922 14.622549,39.537384 14.098163,39.135441 
z"/>
<path fill="#8D8E96" opacity="1.000000" stroke="none" 
	d="
M12.175419,38.216969 
	C12.389285,38.134079 12.688020,38.262943 12.997921,38.654121 
	C12.693000,38.855919 12.443399,38.693348 12.175419,38.216969 
z"/>
<path fill="#909098" opacity="1.000000" stroke="none" 
	d="
M11.052153,37.117279 
	C11.402388,36.956833 11.652470,37.157829 11.906618,37.674469 
	C11.976974,37.907639 11.479645,37.952892 11.229692,37.954933 
	C10.992588,37.770069 11.005439,37.583164 11.052153,37.117279 
z"/>
<path fill="#7F818C" opacity="1.000000" stroke="none" 
	d="
M22.024820,43.150642 
	C22.426823,43.069374 22.770563,43.193710 23.254402,43.569626 
	C23.142427,43.834694 22.890356,43.848183 22.261227,43.818649 
	C21.884171,43.775623 21.966558,43.356247 22.024820,43.150642 
z"/>
<path fill="#878992" opacity="1.000000" stroke="none" 
	d="
M20.096493,42.127110 
	C20.290146,42.031219 20.659319,42.175209 21.181612,42.587105 
	C20.980492,42.692337 20.626253,42.529663 20.096493,42.127110 
z"/>
<path fill="#878992" opacity="1.000000" stroke="none" 
	d="
M18.114925,41.131943 
	C18.312006,41.027477 18.686316,41.164371 19.219208,41.568283 
	C19.015913,41.681297 18.654032,41.527298 18.114925,41.131943 
z"/>
<path fill="#01004D" opacity="1.000000" stroke="none" 
	d="
M26.315868,24.822563 
	C27.109608,23.195181 27.903349,21.567801 29.290634,19.696779 
	C30.571030,19.322439 31.257881,19.191738 31.944731,19.061039 
	C31.944731,19.061039 31.990511,19.148165 31.941687,19.493872 
	C31.952549,20.830225 32.012238,21.820873 32.071644,23.120644 
	C32.078934,23.635715 32.086502,23.841660 31.972816,24.355801 
	C31.126818,25.062803 30.402069,25.461611 29.677320,25.860416 
	C29.677320,25.860416 29.431120,25.747002 29.313208,25.813759 
	C29.195295,25.880516 29.066057,25.827053 29.037685,25.580608 
	C28.901991,25.073294 28.708492,24.961187 27.899906,24.962097 
	C27.019289,24.891752 26.667578,24.857157 26.315868,24.822563 
z"/>
<path fill="#FEF7E8" opacity="1.000000" stroke="none" 
	d="
M29.619606,26.261257 
	C30.402069,25.461611 31.126818,25.062803 32.307289,24.320107 
	C32.986839,23.955828 33.210663,23.935434 33.669636,23.811470 
	C34.584400,23.287996 35.264011,22.868097 36.188797,22.266895 
	C36.636215,22.065041 36.838455,22.044487 37.040699,22.023933 
	C37.040699,22.023933 36.986465,21.986462 36.965309,22.011559 
	C36.789101,22.687017 36.634052,23.337378 36.246170,24.246933 
	C34.760117,25.083342 33.506897,25.660557 32.083023,26.481810 
	C31.128878,26.704599 30.345383,26.683348 29.619606,26.261257 
z"/>
<path fill="#230747" opacity="1.000000" stroke="none" 
	d="
M25.343204,27.065819 
	C25.000023,27.165361 24.534750,27.033112 24.297348,26.986923 
	C24.059946,26.940735 23.965872,26.469728 24.001213,26.233244 
	C24.036554,25.996759 24.216002,26.037893 24.528028,26.006205 
	C25.258018,25.959398 25.675983,25.944283 26.399403,25.979473 
	C27.117981,26.014591 27.531105,25.999401 27.964634,25.992485 
	C27.985043,26.000761 27.938671,26.004374 27.938671,26.004374 
	C27.187908,26.325006 26.437147,26.645639 25.343204,27.065819 
z"/>
<path fill="#1D156E" opacity="1.000000" stroke="none" 
	d="
M28.428816,24.997849 
	C28.708492,24.961187 28.901991,25.073294 29.041037,25.510759 
	C28.870615,25.693018 28.668467,25.698683 28.202496,25.854362 
	C27.938671,26.004374 27.985043,26.000761 28.147026,25.775967 
	C28.348944,25.366732 28.388880,25.182291 28.428816,24.997849 
z"/>
<path fill="#381C60" opacity="1.000000" stroke="none" 
	d="
M19.697529,21.000237 
	C19.706806,20.727407 19.918776,20.566895 20.091221,20.890957 
	C20.494970,21.667995 20.726276,22.120972 21.107578,22.471157 
	C21.257572,22.368362 21.555332,22.577162 21.130798,22.496281 
	C20.419586,22.386671 20.132908,22.357943 19.846230,22.329212 
	C19.793570,21.977163 19.740911,21.625113 19.697529,21.000237 
z"/>
<path fill="#010060" opacity="1.000000" stroke="none" 
	d="
M19.527390,22.492504 
	C20.132908,22.357943 20.419586,22.386671 21.133686,22.529776 
	C21.561108,22.644152 21.616953,22.692825 21.616953,22.692825 
	C21.334545,22.741987 21.052135,22.791151 20.349545,22.935532 
	C19.724916,23.022648 19.520472,23.014545 19.020386,23.095331 
	C18.886013,23.008078 19.047283,22.831938 19.527390,22.492504 
z"/>
<path fill="#F7D901" opacity="1.000000" stroke="none" 
	d="
M21.479710,22.938076 
	C21.616953,22.692825 21.561108,22.644152 21.558220,22.610657 
	C21.555332,22.577162 21.257572,22.368362 21.391479,22.460823 
	C21.630819,21.720858 21.736256,20.888432 21.992523,19.878654 
	C22.143356,19.701302 22.214289,19.241480 22.119501,19.153164 
	C22.024714,19.064848 22.188793,19.265411 22.405540,19.263308 
	C22.622286,19.261204 23.037491,19.130705 23.214708,19.342022 
	C23.931715,20.041739 24.471504,20.530138 25.011295,21.018538 
	C24.931358,22.040783 24.851423,23.063030 24.629833,24.655151 
	C24.285011,25.458214 24.194286,25.729170 24.216002,26.037893 
	C24.216002,26.037893 24.036554,25.996759 23.944561,25.999866 
	C23.126068,25.688650 22.399569,25.374329 21.394669,24.938297 
	C21.191669,24.272167 21.267069,23.727747 21.479710,22.938076 
z"/>
<path fill="#110E6E" opacity="1.000000" stroke="none" 
	d="
M21.841690,20.056005 
	C21.736256,20.888432 21.630819,21.720858 21.241486,22.563618 
	C20.726276,22.120972 20.494970,21.667995 20.213659,20.839165 
	C20.165253,20.146452 20.166851,19.829592 20.582062,19.518787 
	C21.277681,19.701897 21.559687,19.878952 21.841690,20.056005 
z"/>
<path fill="#86283A" opacity="1.000000" stroke="none" 
	d="
M20.189327,16.688072 
	C20.688021,16.473785 21.094706,16.567625 21.735909,16.995522 
	C21.970427,17.329576 22.012877,17.521341 21.999121,17.963181 
	C22.053175,18.691818 22.120985,18.978615 22.188793,19.265411 
	C22.188793,19.265411 22.024714,19.064848 21.784018,18.957075 
	C21.315187,18.729507 21.087053,18.609715 20.858921,18.489920 
	C20.605053,17.992014 20.351187,17.494106 20.189327,16.688072 
z"/>
<path fill="#48335F" opacity="1.000000" stroke="none" 
	d="
M20.764885,18.504215 
	C21.087053,18.609715 21.315187,18.729507 21.878805,19.045391 
	C22.214289,19.241480 22.143356,19.701302 21.992523,19.878654 
	C21.559687,19.878952 21.277681,19.701897 20.755318,19.076191 
	C20.514959,18.627542 20.670847,18.518513 20.764885,18.504215 
z"/>
<path fill="#F8DF04" opacity="1.000000" stroke="none" 
	d="
M25.256210,20.800247 
	C24.471504,20.530138 23.931715,20.041739 23.237411,19.009800 
	C23.060625,18.245382 23.038355,18.024504 23.057995,17.613441 
	C23.099903,17.423262 22.898317,17.090000 22.898315,17.090000 
	C23.068848,16.475815 23.239380,15.861631 23.682478,15.068337 
	C24.604172,15.548813 25.253298,16.208399 26.096420,17.176418 
	C26.027321,18.517221 25.764225,19.549589 25.256210,20.800247 
z"/>
<path fill="#853752" opacity="1.000000" stroke="none" 
	d="
M22.654961,17.139688 
	C22.898317,17.090000 23.099903,17.423262 22.815575,17.514723 
	C22.358458,17.577904 22.185667,17.549622 22.012877,17.521341 
	C22.012877,17.521341 21.970427,17.329576 21.943752,17.235933 
	C21.917080,17.142290 22.411602,17.189377 22.654961,17.139688 
z"/>
<path fill="#8F3D0D" opacity="1.000000" stroke="none" 
	d="
M35.943623,22.448196 
	C35.264011,22.868097 34.584400,23.287996 33.494553,23.566666 
	C32.746853,23.220795 32.409389,23.016157 32.071926,22.811520 
	C32.012238,21.820873 31.952549,20.830225 31.989395,19.481813 
	C32.787189,19.083910 33.488449,19.043772 34.538727,19.004868 
	C35.143623,19.387657 35.399506,19.769217 35.770538,20.797661 
	C35.904999,21.779095 35.924313,22.113646 35.943623,22.448196 
z"/>
<path fill="#32094C" opacity="1.000000" stroke="none" 
	d="
M36.188797,22.266893 
	C35.924313,22.113646 35.904999,21.779095 35.949646,20.945555 
	C36.541809,20.701761 37.070007,20.956957 37.319454,21.618044 
	C36.838455,22.044487 36.636215,22.065041 36.188797,22.266893 
z"/>
<path fill="#554F9D" opacity="1.000000" stroke="none" 
	d="
M32.093906,18.813021 
	C31.257881,19.191738 30.571030,19.322439 29.519691,19.435047 
	C29.677460,18.566860 30.199717,17.716764 31.132830,16.969393 
	C31.776819,17.569744 32.009953,18.067373 32.093906,18.813021 
z"/>
<path fill="#1D156E" opacity="1.000000" stroke="none" 
	d="
M24.528028,26.006205 
	C24.194286,25.729170 24.285011,25.458214 24.594669,25.039383 
	C24.970476,24.827568 25.239796,24.801394 25.866280,25.077669 
	C26.180279,25.563135 26.137114,25.746149 26.093946,25.929165 
	C25.675983,25.944283 25.258018,25.959398 24.528028,26.006205 
z"/>
<path fill="#423F8E" opacity="1.000000" stroke="none" 
	d="
M26.399403,25.979473 
	C26.137114,25.746149 26.180279,25.563135 26.271431,25.102024 
	C26.319420,24.823929 26.320847,24.799253 26.318357,24.810907 
	C26.667578,24.857157 27.019289,24.891752 27.899906,24.962097 
	C28.388880,25.182291 28.348944,25.366732 28.126617,25.767691 
	C27.531105,25.999401 27.117981,26.014591 26.399403,25.979473 
z"/>
<path fill="#010060" opacity="1.000000" stroke="none" 
	d="
M32.071644,23.120644 
	C32.409389,23.016157 32.746853,23.220795 33.259399,23.670238 
	C33.210663,23.935434 32.986839,23.955828 32.428543,24.011911 
	C32.086502,23.841660 32.078934,23.635715 32.071644,23.120644 
z"/>
<path fill="#48335F" opacity="1.000000" stroke="none" 
	d="
M21.999121,17.963181 
	C22.185667,17.549622 22.358458,17.577904 22.773666,17.704903 
	C23.038355,18.024504 23.060625,18.245382 23.060192,18.798485 
	C23.037491,19.130705 22.622286,19.261204 22.405540,19.263308 
	C22.120985,18.978615 22.053175,18.691818 21.999121,17.963181 
z"/>
</svg>